<?xml version="1.0" encoding="iso-8859-1"?>
<!-- Generator: Adobe Illustrator 19.0.0, SVG Export Plug-In . SVG Version: 6.00 Build 0)  -->
<svg xmlns="http://www.w3.org/2000/svg" xmlns:xlink="http://www.w3.org/1999/xlink" version="1.1" id="Capa_1" x="0px" y="0px" viewBox="0 0 520 520" style="enable-background:new 0 0 520 520;" xml:space="preserve" width="512" height="512">
<g id="XMLID_1259_">
	<path id="XMLID_1260_" style="fill:#FFF176;" d="M422.514,138.971c-4.642-2.688-10.363-2.689-15.007-0.012   c-4.645,2.679-7.507,7.633-7.507,12.994V220c0,0.025,0.004,0.049,0.004,0.073l-26.293,30.049C371.318,252.856,370,256.366,370,260   v40c0,8.284,6.716,15,15,15s15-6.716,15-15v-34.364L426.807,235H445l10.008-40L445,145   C437.105,145,429.329,142.915,422.514,138.971z"/>
	<path id="XMLID_1261_" style="fill:#FDD835;" d="M516.289,250.122l-26.293-30.049c0-0.025,0.004-0.049,0.004-0.073v-68.047   c0-5.361-2.862-10.315-7.507-12.994c-4.644-2.678-10.365-2.674-15.007,0.012C460.671,142.915,452.895,145,445,145v90h18.193   L490,265.636V300c0,8.284,6.716,15,15,15s15-6.716,15-15v-40C520,256.366,518.682,252.856,516.289,250.122z"/>
	<path id="XMLID_1264_" style="fill:#767780;" d="M260,315c-13.449,0-26.091-5.951-34.683-16.328   c-3.773-4.557-9.874-6.474-15.574-4.885c-5.7,1.586-9.936,6.375-10.813,12.227l-13.764,91.762   c-0.647,4.318,0.618,8.704,3.468,12.013c2.85,3.31,7,5.212,11.366,5.212h60.015l10.008-45.5L260.015,315   C260.01,315,260.005,315,260,315z"/>
	<path id="XMLID_1267_" style="fill:#5F6066;" d="M334.834,397.775l-13.764-91.762c-0.878-5.852-5.113-10.641-10.813-12.227   c-5.702-1.588-11.801,0.327-15.574,4.885c-8.589,10.373-21.224,16.323-34.668,16.328v100H320c4.366,0,8.517-1.902,11.366-5.212   C334.216,406.479,335.481,402.094,334.834,397.775z"/>
	<path id="XMLID_1270_" style="fill:#767780;" d="M260.015,202.535v17.422c0.944-1.323,1.684-2.806,2.165-4.412   C263.522,211.064,262.679,206.269,260.015,202.535z"/>
	<path id="XMLID_1273_" style="fill:#767780;" d="M270.023,100l-10.008-55H119.71c-5.916,0-11.28,3.478-13.694,8.879   c-2.414,5.402-1.428,11.718,2.519,16.126c7.085,7.914,11.144,18.125,11.431,28.753c0,0.014-0.001,0.028,0,0.042l0.019,0.596   C119.99,99.597,120,99.798,120,100c0,22.493-16.792,41.665-39.06,44.595c-5.663,0.745-10.411,4.642-12.247,10.05   s-0.441,11.391,3.598,15.429l117.521,117.52c2.878,2.879,6.717,4.394,10.61,4.394c2.213,0,4.443-0.489,6.525-1.496   c5.747-2.778,9.105-8.89,8.371-15.23C215.104,273.411,215,271.69,215,270c0-21.249,15.074-39.781,35.842-44.067   c3.76-0.776,7.01-2.947,9.173-5.976v-17.422c-0.477-0.668-1.005-1.307-1.598-1.899L212.781,155h47.233L270.023,100z"/>
	<path id="XMLID_1276_" style="fill:#5F6066;" d="M400,100c0-11.084,4.072-21.736,11.466-29.994   c3.946-4.408,4.933-10.725,2.519-16.126C411.57,48.478,406.207,45,400.29,45H260.015v110H400.29c5.917,0,11.28-3.478,13.694-8.88   c2.414-5.401,1.428-11.718-2.519-16.126C404.072,121.736,400,111.084,400,100z"/>
	<path id="XMLID_1277_" style="fill:#56545C;" d="M200,385c-4.284,0-8.364,1.832-11.211,5.034l-40,45   C146.349,437.78,145,441.326,145,445v20h-25c-8.284,0-15,6.716-15,15s6.716,15,15,15h40h100.015V385H200z"/>
	<path id="XMLID_1278_" style="fill:#3E3E42;" d="M400,465h-25v-20c0-3.674-1.349-7.22-3.789-9.966l-40-45   C328.364,386.832,324.284,385,320,385h-59.985v110H360h40c8.284,0,15-6.716,15-15S408.284,465,400,465z"/>
	<path id="XMLID_1279_" style="fill:#56545C;" d="M260,195c-41.355,0-75,33.645-75,75s33.645,75,75,75c0.005,0,0.01,0,0.015,0   l10.008-75.004L260.015,195C260.01,195,260.005,195,260,195z"/>
	<path id="XMLID_1280_" style="fill:#3E3E42;" d="M335,270c0-41.351-33.637-74.992-74.985-75V345   C301.363,344.992,335,311.351,335,270z"/>
	<path id="XMLID_1281_" style="fill:#56545C;" d="M75,25C33.645,25,0,58.645,0,100s33.645,75,75,75s75-33.645,75-75   S116.355,25,75,25z"/>
	<path id="XMLID_1282_" style="fill:#56545C;" d="M370,100c0,41.355,33.645,75,75,75l10.008-75L445,25   C403.645,25,370,58.645,370,100z"/>
	<path id="XMLID_1283_" style="fill:#3E3E42;" d="M445,25v150c41.355,0,75-33.645,75-75S486.355,25,445,25z"/>
	<g id="XMLID_1290_">
		<g id="XMLID_1285_">
			<path id="XMLID_1286_" style="fill:#767780;" d="M75,115.005c-8.284,0-15.005-6.721-15.005-15.005S66.716,84.995,75,84.995     S90.005,91.716,90.005,100S83.284,115.005,75,115.005z M89.995,100h0.01H89.995z M75,100h0.01H75z"/>
		</g>
	</g>
	<path id="XMLID_1295_" style="fill:#767780;" d="M260.005,254.99c-8.284,0-15.005,6.721-15.005,15.005S251.721,285,260.005,285   c0.003,0,0.006,0,0.01,0l10.008-15.004l-10.008-15.004C260.011,254.991,260.008,254.99,260.005,254.99z"/>
	<path id="XMLID_1298_" style="fill:#5F6066;" d="M275.01,269.995H275H275.01c0-8.281-6.715-14.999-14.995-15.004v15.004V285   C268.294,284.994,275.01,278.276,275.01,269.995z"/>
	<path id="XMLID_1301_" style="fill:#767780;" d="M445,84.995c-8.284,0-15.005,6.721-15.005,15.005s6.721,15.005,15.005,15.005   L452.502,100L445,84.995z"/>
	<path id="XMLID_1302_" style="fill:#5F6066;" d="M459.995,100h0.01c0-8.284-6.721-15.005-15.005-15.005V100h0.01H445v15.005   c8.284,0,15.005-6.721,15.005-15.005H459.995z"/>
</g>















</svg>
